<svg width="114" height="48" viewBox="0 0 114 48" fill="none" xmlns="http://www.w3.org/2000/svg">
<path d="M55.3202 18.4174C56.5305 18.2327 57.7203 18.0481 59.0024 17.8532C58.5614 19.8636 58.0588 21.7816 57.5972 23.8022C57.8024 23.7407 57.9665 23.6894 58.1408 23.6484C59.6896 23.2381 61.1256 23.3919 62.3667 24.4792C63.1462 25.1664 63.5565 26.069 63.7206 27.0639C64.1719 29.8333 63.4231 32.2539 61.4333 34.2335C60.0589 35.5976 58.3665 36.3054 56.4074 36.3566C54.992 36.3977 53.6073 36.2541 52.2636 35.8233C51.9457 35.7207 51.638 35.5771 51.279 35.4438C52.6226 29.7512 53.9663 24.1099 55.3202 18.4174ZM55.3202 33.3309C56.2638 33.5052 57.1459 33.4847 57.9665 33.0129C59.0947 32.3667 59.7614 31.3615 60.1102 30.141C60.3563 29.2794 60.4076 28.3973 60.1409 27.5152C59.9255 26.787 59.5358 26.4177 58.787 26.4177C58.3152 26.4177 57.8434 26.5203 57.3921 26.6434C57.0228 26.7459 56.7972 27.0126 56.7049 27.4434C56.4485 28.6435 56.1305 29.8333 55.8433 31.0231C55.6792 31.7718 55.5048 32.5103 55.3202 33.3309Z" fill="black"/>
<path d="M109.405 17.8737C108.933 19.8328 108.482 21.7098 108.01 23.6483C108.174 23.6381 108.287 23.6483 108.389 23.6278C109.2 23.4637 110.01 23.4022 110.831 23.5663C112.605 23.9048 113.518 25.1766 113.672 26.8075C113.764 27.7614 113.661 28.7152 113.436 29.6486C112.954 31.6179 112.482 33.5975 112.01 35.5668C111.979 35.7002 111.928 35.8233 111.887 35.9976C110.738 35.9976 109.589 35.9976 108.379 35.9976C108.42 35.7822 108.451 35.5771 108.502 35.3925C109.005 33.2693 109.507 31.1461 110 29.0127C110.123 28.4793 110.236 27.946 110.102 27.3921C109.969 26.8485 109.661 26.5203 109.107 26.4382C108.523 26.3459 107.959 26.4382 107.333 26.5818C106.953 28.1511 106.574 29.7204 106.205 31.2897C105.835 32.8488 105.466 34.4078 105.087 35.9976C103.907 35.9976 102.758 35.9976 101.528 35.9976C102.933 30.1307 104.317 24.315 105.723 18.4378C106.912 18.2019 108.123 18.0378 109.405 17.8737Z" fill="black"/>
<path d="M89.9166 24.3151C89.7525 25.0331 89.5987 25.6998 89.4448 26.3562C89.0961 27.8127 88.7474 29.2794 88.3986 30.7359C88.0396 32.2539 88.1627 33.7514 88.573 35.2387C88.614 35.4028 88.6653 35.5669 88.7371 35.7926C87.6806 35.9464 86.6652 36.1003 85.6088 36.2644C85.4344 35.8951 85.2703 35.5669 85.1062 35.2284C84.6344 35.4951 84.1933 35.7823 83.7215 35.9977C82.4189 36.6028 80.0803 36.5823 78.7777 35.1464C78.3161 34.6438 77.9776 34.0797 77.8238 33.413C77.0955 30.3564 77.711 27.6383 79.9982 25.4228C81.5881 23.8741 83.5574 23.2792 85.7729 23.433C86.778 23.5048 87.7832 23.5971 88.7474 23.8946C89.1269 24.0074 89.5064 24.1612 89.9166 24.3151ZM84.6241 32.4591C84.7779 30.4385 85.4652 28.4794 85.8652 26.469C84.3266 26.1716 83.5061 26.4793 82.6343 27.2691C81.8445 27.9768 81.3932 28.8794 81.1778 29.9051C81.0034 30.7769 81.0034 31.6283 81.3111 32.4796C81.506 33.0129 81.8958 33.2796 82.4599 33.3412C83.3317 33.4335 84.0292 33.136 84.6241 32.4591Z" fill="black"/>
<path d="M51.0225 16.5096C52.2226 11.4837 53.4021 6.52964 54.5817 1.54479C55.6484 1.38068 56.6741 1.21657 57.7818 1.04221C57.7613 1.2576 57.7511 1.41145 57.7203 1.56531C57.3818 2.98076 57.0433 4.38595 56.7049 5.8014C56.6741 5.92448 56.6741 6.05782 56.6433 6.2527C56.869 6.1809 57.0433 6.12962 57.2177 6.08859C58.6537 5.73986 59.9358 6.00654 60.9922 7.08351C61.5256 7.62713 61.8025 8.31434 61.9461 9.04258C62.6231 12.3453 60.8076 15.9147 57.3408 17.0327C56.0792 17.443 54.7868 17.443 53.4842 17.2173C52.9098 17.1147 52.3457 16.9814 51.7918 16.8378C51.5559 16.766 51.3303 16.6429 51.0225 16.5096ZM54.6022 14.6121C54.7561 14.6633 54.8791 14.7249 55.0125 14.7351C55.8228 14.8069 56.5715 14.6531 57.2485 14.171C58.5819 13.2069 59.2999 11.1863 58.8588 9.6067C58.7255 9.1554 58.5203 8.73487 57.987 8.64256C57.4536 8.55025 56.9305 8.58102 56.4279 8.7759C56.11 8.89898 55.9048 9.10412 55.833 9.47336C55.5869 10.5709 55.3099 11.6581 55.0535 12.7556C54.8894 13.3607 54.7561 13.9761 54.6022 14.6121Z" fill="black"/>
<path d="M68.8697 31.7308C68.9414 32.6642 69.4645 33.2078 70.3672 33.3309C71.5159 33.4847 72.6442 33.3514 73.7519 33.0232C73.834 33.0027 73.916 32.9719 73.9981 32.9514C74.0289 32.9411 74.0699 32.9514 74.1827 32.9514C74.3058 33.8437 74.3981 34.7463 74.4289 35.7207C73.8647 35.8746 73.3314 36.0387 72.7878 36.1515C71.5877 36.3977 70.3877 36.4592 69.1774 36.2541C67.0132 35.8848 65.6285 34.4694 65.3618 32.2949C65.0336 29.6179 65.7823 27.2793 67.7106 25.3818C69.2081 23.9048 71.0544 23.2381 73.1673 23.392C74.7674 23.5048 76.0802 24.4792 76.429 25.8536C76.8495 27.5152 76.3572 29.3204 74.6648 30.3974C73.6391 31.0539 72.4903 31.3718 71.2903 31.5154C70.6133 31.5975 69.9261 31.6282 69.2492 31.6898C69.1261 31.6898 69.0132 31.7103 68.8697 31.7308ZM68.9414 29.1563C69.844 29.2897 71.7621 28.9512 72.5108 28.5101C72.675 28.4178 72.8391 28.3153 72.9621 28.1717C73.3006 27.7922 73.4237 27.3409 73.2493 26.8383C73.0852 26.3562 72.6852 26.2331 72.2442 26.2023C72.0595 26.1921 71.8647 26.2023 71.68 26.2331C70.2748 26.4588 69.1363 27.6793 68.9414 29.1563Z" fill="black"/>
<path d="M86.3885 12.776C86.4603 10.899 87.0244 9.20663 88.2963 7.80144C89.763 6.20137 91.5888 5.58595 93.7222 6.027C95.4248 6.37573 96.5018 7.57579 96.748 9.29894C97.0352 11.2888 96.6249 13.135 95.4966 14.8171C94.0914 16.8993 91.6195 17.8224 89.2092 17.1455C87.7732 16.7454 86.9526 15.73 86.6039 14.3146C86.4706 13.812 86.4501 13.2889 86.3885 12.776ZM89.5066 12.5299C89.5681 12.9504 89.5989 13.3812 89.7117 13.7812C89.8656 14.3556 90.2451 14.612 90.8297 14.653C91.4452 14.7043 91.9683 14.5197 92.4093 14.0889C93.1273 13.3914 93.476 12.5196 93.6401 11.5657C93.7632 10.8477 93.753 10.14 93.5478 9.44254C93.394 8.9297 93.0555 8.6425 92.5221 8.58096C91.8759 8.50916 91.3118 8.67327 90.84 9.13483C89.8964 10.0682 89.5784 11.2375 89.5066 12.5299Z" fill="black"/>
<path d="M108.317 8.65275C107.64 11.4836 106.974 14.253 106.317 17.0121C105.261 17.0121 104.256 17.0121 103.189 17.0121C104.03 13.535 104.851 10.1195 105.671 6.70394C106.451 6.38598 107.21 6.21161 107.989 6.08853C109.087 5.91416 110.194 5.83211 111.302 6.0475C112.328 6.24238 113.169 6.7142 113.62 7.70911C113.948 8.43735 114.092 9.21688 113.938 10.0067C113.672 11.3606 113.354 12.7042 113.046 14.0581C112.861 14.8889 112.646 15.7197 112.451 16.5505C112.42 16.6941 112.369 16.848 112.318 17.0224C111.302 17.0224 110.307 17.0224 109.261 17.0224C109.282 16.8685 109.282 16.7352 109.312 16.6121C109.712 14.8992 110.133 13.1965 110.512 11.4734C110.635 10.9093 110.738 10.3349 110.769 9.76049C110.8 8.99123 110.42 8.63223 109.651 8.61172C109.22 8.59121 108.8 8.63223 108.317 8.65275Z" fill="black"/>
<path d="M101.948 24.1099C101.527 25.0535 101.148 25.9356 100.738 26.8587C100.492 26.7766 100.276 26.7151 100.071 26.6433C99.3017 26.3664 98.512 26.3151 97.7017 26.4587C96.5529 26.6638 95.7529 27.3305 95.2708 28.3767C94.7682 29.464 94.6656 30.6127 94.9221 31.782C95.1477 32.7974 95.7631 33.2795 96.8093 33.3411C97.6401 33.3821 98.4402 33.2898 99.23 33.0026C99.3223 32.9718 99.4248 32.9513 99.5171 32.9205C99.7018 33.3308 99.8556 34.6642 99.8454 35.6899C99.1274 36.0284 98.3684 36.2745 97.5683 36.3156C96.758 36.3566 95.9272 36.3463 95.1169 36.2335C92.9527 35.9258 91.445 34.3052 91.1988 32.1102C91.0142 30.4486 91.2296 28.8383 91.9886 27.3305C93.0963 25.1561 94.8503 23.8637 97.2709 23.4739C98.6863 23.2483 100.061 23.3611 101.404 23.8842C101.558 23.9355 101.712 24.0073 101.948 24.1099Z" fill="black"/>
<path d="M75.5569 14.3455C75.6287 15.1763 75.7005 15.9353 75.7723 16.6943C75.1467 17.002 74.521 17.1148 73.9056 17.2174C73.0953 17.3507 72.2747 17.3302 71.4542 17.1866C69.9259 16.92 69.0849 15.8327 69.0643 14.2634C69.0541 13.33 69.2695 12.4377 69.4746 11.5351C69.9875 9.36063 70.5003 7.17591 71.0131 5.00145C71.126 4.50912 71.2696 4.01679 71.4029 3.49369C72.4594 3.32958 73.4953 3.16547 74.6338 2.9911C74.3671 4.08859 74.1312 5.08351 73.8748 6.17074C75.0133 6.17074 76.0903 6.17074 77.2698 6.17074C77.0545 7.06309 76.8493 7.87338 76.6339 8.74522C75.5057 8.74522 74.3877 8.74522 73.2594 8.74522C73.0543 9.58628 72.8594 10.3658 72.6645 11.1453C72.5414 11.6479 72.4183 12.1402 72.326 12.6428C72.2645 12.93 72.2235 13.2172 72.2132 13.5044C72.1927 14.2121 72.5312 14.6122 73.2389 14.6429C73.7928 14.6634 74.3569 14.5711 74.9108 14.5096C75.1056 14.4788 75.28 14.4173 75.5569 14.3455Z" fill="black"/>
<path d="M84.6652 14.2531C84.7472 15.1146 84.819 15.9044 84.8908 16.725C84.1318 17.0635 83.3728 17.2481 82.5933 17.3199C81.8753 17.3814 81.1676 17.3404 80.4598 17.1763C78.6649 16.7455 77.5059 15.5147 77.2597 13.6787C77.0135 11.8119 77.3623 10.0683 78.4495 8.50921C79.5675 6.91939 81.1368 6.07833 83.0651 5.91422C84.06 5.83216 85.0447 5.90396 85.9986 6.24244C86.214 6.32449 86.4294 6.4168 86.7063 6.52963C86.3473 7.35018 86.0088 8.11945 85.6498 8.94C85.3729 8.85794 85.137 8.7964 84.8908 8.71435C84.1728 8.47844 83.4446 8.47844 82.7164 8.6528C82.0702 8.81692 81.5368 9.17591 81.1573 9.74003C80.3778 10.8888 80.2445 12.1504 80.5932 13.4633C80.7881 14.212 81.3419 14.571 82.1009 14.6326C82.8292 14.6839 83.5369 14.5915 84.2241 14.3761C84.3369 14.3659 84.4498 14.3249 84.6652 14.2531Z" fill="black"/>
<path d="M65.8436 17.0121C64.7871 17.0121 63.8025 17.0121 62.7255 17.0121C63.5871 13.3915 64.4384 9.81181 65.3 6.17062C66.3359 6.16036 67.3411 6.13985 68.4283 6.20139C67.5668 9.84258 66.7052 13.412 65.8436 17.0121Z" fill="black"/>
<path d="M100.594 17.0225C99.5481 17.0225 98.5839 17.0225 97.5274 17.0225C97.7121 15.7814 98.0711 14.6121 98.3377 13.4326C98.6044 12.2325 98.9019 11.0427 99.1788 9.84269C99.466 8.6529 99.7532 7.45284 100.051 6.2015C101.066 6.13996 102.082 6.15022 103.179 6.2015C102.328 9.84269 101.456 13.4223 100.594 17.0225Z" fill="black"/>
<path d="M103.24 40.9416C102.851 42.9622 102.461 45.0033 102.071 47.0752C101.733 47.0752 101.415 47.0752 101.066 47.0752C101.199 46.3675 101.333 45.7008 101.476 44.9623C101.333 45.0751 101.24 45.1366 101.158 45.2084C100.543 45.6392 99.8864 45.4238 99.671 44.6956C99.4864 44.0904 99.5582 43.475 99.7223 42.8801C99.8864 42.2647 100.153 41.6903 100.615 41.239C101.292 40.5416 102.358 40.4082 103.24 40.9416ZM102.112 41.557C101.661 41.4339 101.466 41.4954 101.199 41.8544C100.738 42.4801 100.584 43.2083 100.594 43.9674C100.594 44.1417 100.686 44.3161 100.769 44.5623C100.984 44.4699 101.179 44.4392 101.292 44.3263C101.445 44.1725 101.589 43.9776 101.63 43.7725C101.815 43.0442 101.958 42.2955 102.112 41.557Z" fill="black"/>
<path d="M67.2697 4.93991C66.0183 4.92965 65.3004 3.92448 65.6799 2.74493C66.0901 1.48334 67.5671 0.878181 68.7056 1.50385C69.2698 1.81156 69.4749 2.31414 69.4441 2.90904C69.3826 4.04756 68.3979 4.95016 67.2697 4.93991Z" fill="black"/>
<path d="M102.04 4.93993C100.697 4.88864 100.092 3.9245 100.43 2.8065C100.738 1.76029 101.815 1.08334 102.851 1.28848C103.928 1.50387 104.43 2.33468 104.122 3.39114C103.856 4.27323 102.963 4.93993 102.04 4.93993Z" fill="black"/>
<path d="M58.6332 38.9824C58.5819 39.2696 58.5409 39.5055 58.4896 39.8132C57.987 39.8132 57.4947 39.8132 56.9511 39.8132C56.8382 40.3876 56.7357 40.9107 56.6126 41.5158C57.1152 41.5363 57.5562 41.5466 58.0691 41.5671C58.0075 41.8645 57.9665 42.1107 57.9049 42.4287C57.4229 42.4287 56.9613 42.4287 56.4382 42.4287C56.3049 43.1056 56.192 43.721 56.0587 44.3877C56.6228 44.4083 57.1357 44.4288 57.6998 44.4493C57.6383 44.7775 57.587 45.0339 57.5357 45.3211C56.6434 45.3211 55.792 45.3211 54.8484 45.3211C55.2484 43.1877 55.6484 41.1055 56.0485 38.9926C56.9203 38.9824 57.7511 38.9824 58.6332 38.9824Z" fill="black"/>
<path d="M99.4249 40.8081C99.1685 42.3159 98.9121 43.7826 98.6556 45.3109C98.4402 45.3109 98.1838 45.3109 97.8966 45.3109C97.8761 45.116 97.8659 44.9314 97.8454 44.757C97.6402 44.9314 97.4453 45.1263 97.2197 45.2699C96.6761 45.6083 96.1325 45.4032 95.8863 44.8186C95.5273 43.957 95.8965 41.7312 97.1581 40.9722C97.8761 40.5209 98.6249 40.5004 99.4249 40.8081ZM98.3069 41.5056C97.8043 41.3723 97.5479 41.6287 97.353 41.9261C96.953 42.5415 96.7581 43.2185 96.7684 43.957C96.7684 44.039 96.7684 44.1314 96.7889 44.2134C96.8709 44.5211 97.1171 44.6134 97.3633 44.4186C97.4761 44.3262 97.5787 44.1929 97.6402 44.0596C97.7736 43.7313 97.9069 43.3929 97.9889 43.0544C98.1223 42.5415 98.2043 42.0287 98.3069 41.5056Z" fill="black"/>
<path d="M94.2657 40.8081C93.999 42.3261 93.7528 43.7826 93.4861 45.3211C93.2913 45.3314 93.0348 45.3416 92.7169 45.3621C92.7066 45.1262 92.6964 44.9313 92.6861 44.7365C92.481 44.9108 92.2963 45.116 92.0809 45.2596C91.5271 45.6083 90.9424 45.4032 90.7168 44.7877C90.2962 43.6595 90.9629 41.6184 91.9886 40.9722C92.6861 40.5209 93.4554 40.5106 94.2657 40.8081ZM93.1989 41.5055C92.6348 41.4543 92.4502 41.5261 92.1938 41.9158C91.763 42.562 91.5886 43.28 91.6296 44.0595C91.6399 44.2134 91.722 44.3672 91.7732 44.5108C92.2451 44.5518 92.4399 44.2646 92.5322 43.9672C92.7682 43.1569 92.9733 42.3466 93.1989 41.5055Z" fill="black"/>
<path d="M104.584 44.4494C104.933 44.6032 105.159 44.4596 105.292 44.2032C105.446 43.9263 105.569 43.6186 105.641 43.3006C105.805 42.5826 105.918 41.8647 106.051 41.1364C106.071 41.0031 106.112 40.88 106.153 40.7261C106.471 40.7261 106.769 40.7261 107.138 40.7261C106.861 42.2749 106.584 43.7724 106.307 45.311C106.051 45.311 105.805 45.311 105.518 45.311C105.477 45.1981 105.436 45.0648 105.394 44.9212C105.189 45.0545 105.005 45.2084 104.789 45.311C104.082 45.6289 103.476 45.2699 103.476 44.5007C103.487 43.9058 103.589 43.3109 103.682 42.7262C103.774 42.1416 103.897 41.5569 104.01 40.962C104.03 40.88 104.071 40.8082 104.112 40.7159C104.4 40.7159 104.687 40.7159 105.015 40.7159C105.005 41.3723 104.81 41.9672 104.728 42.5826C104.676 43.2083 104.43 43.8135 104.584 44.4494Z" fill="black"/>
<path d="M64.7465 40.7262C65.0439 40.7262 65.3311 40.7262 65.6491 40.7262C65.6081 41.998 65.0542 43.1878 65.1465 44.4391C65.567 44.6135 65.7927 44.4186 65.926 44.1519C66.0696 43.8648 66.1824 43.5571 66.2542 43.2493C66.4183 42.5211 66.5414 41.7724 66.6748 41.0339C66.6953 40.9313 66.7363 40.839 66.7773 40.7364C67.085 40.7364 67.3825 40.7364 67.7517 40.7364C67.4645 42.2852 67.1979 43.7827 66.9107 45.3212C66.644 45.3212 66.3978 45.3212 66.1106 45.3212C66.0799 45.1982 66.0491 45.0751 66.0183 44.9315C65.9773 44.952 65.926 44.9622 65.8952 44.9828C65.6593 45.1161 65.4439 45.3007 65.1875 45.3828C64.5926 45.5674 64.1413 45.2392 64.09 44.6033C64.0695 44.3161 64.0695 44.0186 64.1105 43.7314C64.2747 42.7878 64.4593 41.8544 64.6439 40.9108C64.6747 40.8595 64.7054 40.8185 64.7465 40.7262Z" fill="black"/>
<path d="M72.4801 44.9417C72.1622 45.1058 71.8852 45.2904 71.5878 45.3827C71.1057 45.5366 70.6954 45.2904 70.5621 44.8083C70.5006 44.6032 70.4595 44.3673 70.4903 44.1519C70.6749 43.0236 70.8801 41.9056 71.0852 40.7466C71.4339 40.7466 71.7416 40.7466 72.0801 40.7466C71.9878 42.0082 71.5263 43.1877 71.5263 44.4083C71.875 44.6032 72.1109 44.5109 72.2545 44.275C72.4083 44.0185 72.5519 43.7314 72.6237 43.4442C72.8186 42.5621 72.9827 41.6697 73.1674 40.7466C73.4853 40.7466 73.8033 40.7466 74.1725 40.7466C73.8956 42.2749 73.6187 43.7826 73.3417 45.3212C73.0853 45.3212 72.8391 45.3212 72.5519 45.3212C72.5314 45.1878 72.5109 45.0545 72.4801 44.9417Z" fill="black"/>
<path d="M76.8186 43.7417C76.8289 42.8289 77.075 41.9981 77.6597 41.2801C77.7828 41.1262 77.9469 40.9826 78.111 40.8801C79.0854 40.2646 80.0906 40.7262 80.2034 41.8647C80.306 42.9007 80.0495 43.8648 79.4341 44.7161C79.3213 44.8802 79.1572 45.0238 78.9931 45.1367C78.5315 45.4546 78.0289 45.5674 77.5058 45.2905C77.0135 45.0341 76.8494 44.5828 76.8186 44.0597C76.8186 43.9469 76.8186 43.8443 76.8186 43.7417ZM79.2598 42.2955C79.2392 42.2852 79.2187 42.2852 79.1982 42.275C79.188 42.1006 79.1982 41.9263 79.1674 41.7621C79.0957 41.4339 78.8085 41.3416 78.552 41.557C78.4495 41.6391 78.3469 41.7519 78.3059 41.875C78.152 42.2852 77.9879 42.7058 77.9059 43.1366C77.8341 43.475 77.8648 43.8443 77.8956 44.2033C77.9059 44.3264 78.0289 44.5212 78.1315 44.5418C78.2648 44.5725 78.4597 44.4905 78.5726 44.3879C78.7059 44.2648 78.8187 44.0905 78.8597 43.9161C79.0033 43.3827 79.1264 42.8391 79.2598 42.2955Z" fill="black"/>
<path d="M82.9523 43.5467C82.901 44.3673 83.1984 44.6442 83.978 44.5109C84.1421 44.4801 84.3062 44.4391 84.4805 44.3981C84.5113 44.5006 84.5524 44.5827 84.5626 44.6647C84.5831 44.7981 84.5934 44.9314 84.6036 45.0853C84.0703 45.393 83.5061 45.4956 82.9215 45.352C82.4087 45.2289 82.0804 44.8801 81.9779 44.3775C81.742 43.2083 82.0189 42.1415 82.7677 41.2184C83.0138 40.921 83.342 40.7364 83.7215 40.6543C84.4806 40.4902 85.0857 40.9312 85.1575 41.7108C85.219 42.4287 84.819 43.0647 84.1216 43.2903C83.7626 43.4031 83.3728 43.4544 82.9523 43.5467ZM83.0343 42.7159C83.3728 42.6236 83.6395 42.6031 83.8344 42.48C83.9985 42.3775 84.1318 42.1723 84.2036 41.9774C84.2754 41.8031 84.2344 41.5672 84.019 41.5159C83.8856 41.4851 83.6805 41.5466 83.5677 41.639C83.26 41.8749 83.1472 42.2339 83.0343 42.7159Z" fill="black"/>
<path d="M62.5923 45.3212C62.2539 45.3212 61.9564 45.3212 61.5974 45.3212C61.8333 44.0288 62.0692 42.7877 62.2949 41.5159C62.1 41.4748 61.9564 41.4441 61.7513 41.4133C61.7923 41.1774 61.8231 40.9723 61.8641 40.7466C62.059 40.7158 62.2231 40.6953 62.4385 40.6645C62.5103 40.4389 62.5718 40.1927 62.6539 39.9568C62.8898 39.3106 63.2898 38.8183 64.0078 38.7055C64.2642 38.6645 64.5411 38.7055 64.8796 38.7157C64.8078 39.0337 64.7565 39.2696 64.7258 39.4235C64.377 39.5568 64.0591 39.6081 63.8437 39.7825C63.6078 39.9671 63.5257 40.2953 63.536 40.6543C63.7924 40.6851 64.0386 40.7056 64.336 40.7363C64.295 40.9723 64.2539 41.1876 64.2129 41.4236C63.936 41.4441 63.6796 41.4646 63.3616 41.4851C63.1052 42.7467 62.8488 44.0185 62.5923 45.3212Z" fill="black"/>
<path d="M88.7578 41.5262C88.5629 41.4749 88.4295 41.4441 88.2757 41.4031C88.3065 41.1774 88.3372 40.9825 88.3577 40.7671C88.5424 40.7261 88.7065 40.6953 88.9014 40.6646C88.9732 40.3671 89.0552 40.0594 89.1373 39.7415C89.4655 39.6594 89.7732 39.5876 90.163 39.485C90.1014 39.9261 90.0501 40.2851 89.9886 40.6646C90.2655 40.6953 90.5117 40.7261 90.7989 40.7569C90.7579 40.9928 90.7168 41.1877 90.6758 41.4338C90.3989 41.4544 90.1322 41.4749 89.8142 41.4954C89.6501 42.4698 89.3732 43.4237 89.3629 44.4494C89.5783 44.5109 89.7527 44.5724 89.9578 44.634C89.927 44.8596 89.8963 45.075 89.8552 45.3212C89.6604 45.3622 89.486 45.4135 89.3014 45.4238C88.6244 45.4443 88.2141 45.0443 88.2859 44.3776C88.3475 43.7724 88.4808 43.1673 88.5834 42.5621C88.6347 42.2236 88.6962 41.8954 88.7578 41.5262Z" fill="black"/>
<path d="M68.09 41.4031C68.131 41.1672 68.1618 40.9621 68.2028 40.7467C68.3875 40.7159 68.5413 40.6954 68.7362 40.6646C68.808 40.3672 68.8798 40.0595 68.9618 39.7312C69.2901 39.6492 69.5875 39.5671 69.9875 39.4646C69.9157 39.9056 69.8542 40.2646 69.7927 40.6544C70.0593 40.6851 70.3055 40.7056 70.6029 40.7364C70.5619 40.9723 70.5209 41.1877 70.4799 41.4236C70.1824 41.4441 69.9157 41.4646 69.5978 41.4852C69.4952 42.4801 69.126 43.4237 69.1567 44.4494C69.3721 44.5007 69.526 44.552 69.7619 44.6135C69.7311 44.8289 69.6901 45.0546 69.6491 45.3418C69.4029 45.3623 69.1772 45.4238 68.9516 45.4033C68.3567 45.352 68.049 45.0238 68.1003 44.4186C68.1413 43.8237 68.2746 43.2391 68.3669 42.6544C68.4285 42.2852 68.5003 41.9159 68.5721 41.5159C68.4285 41.4852 68.3054 41.4544 68.09 41.4031Z" fill="black"/>
<path d="M60.4588 38.7876C60.0383 41.0031 59.628 43.1571 59.2177 45.311C58.8588 45.311 58.5613 45.311 58.1921 45.311C58.6126 43.116 59.0126 40.9621 59.4229 38.7876C59.7716 38.7876 60.0691 38.7876 60.4588 38.7876Z" fill="black"/>
<path d="M85.0037 45.0853C85.0857 44.8699 85.1678 44.6648 85.2498 44.4391C85.4447 44.4904 85.5986 44.5519 85.7627 44.5725C86.0396 44.6237 86.3165 44.593 86.4909 44.3263C86.6345 44.1006 86.6037 43.7724 86.4089 43.516C86.3371 43.4237 86.2345 43.3519 86.1524 43.2698C85.4755 42.6442 85.3524 41.9467 85.814 41.2697C86.255 40.6338 87.1473 40.4389 87.9576 40.839C87.8961 41.0441 87.8346 41.2697 87.7628 41.5056C87.5474 41.4851 87.3627 41.4646 87.1781 41.4544C86.9422 41.4441 86.7268 41.4954 86.6242 41.7313C86.5319 41.9672 86.5525 42.2031 86.7166 42.4083C86.8089 42.5108 86.9114 42.6031 87.0038 42.6954C87.7012 43.3519 87.7833 44.1622 87.2704 44.8494C86.8909 45.3417 85.7011 45.6597 85.0037 45.0853Z" fill="black"/>
<path d="M75.9364 41.2287C76.2339 40.8902 76.5416 40.5722 77.1262 40.6543C77.075 40.9825 77.0339 41.2902 76.9826 41.6082C76.1108 41.721 75.8134 42.3364 75.6492 43.0544C75.5159 43.6185 75.4339 44.1929 75.3313 44.7673C75.3005 44.9519 75.239 45.1263 75.1979 45.3314C74.88 45.3314 74.5825 45.3314 74.2133 45.3314C74.4902 43.7826 74.7671 42.2851 75.0441 40.7466C75.3108 40.7466 75.5774 40.7466 75.8646 40.7466C75.8749 40.9312 75.8954 41.0851 75.9057 41.2492C75.9057 41.2389 75.9159 41.2287 75.9364 41.2287Z" fill="black"/>
<path d="M108.195 45.3212C107.856 45.3212 107.559 45.3212 107.179 45.3212C107.477 43.7724 107.764 42.2646 108.051 40.7364C108.4 40.7364 108.697 40.7364 109.077 40.7364C108.769 42.2852 108.482 43.7929 108.195 45.3212Z" fill="black"/>
<path d="M53.3303 42.6853C53.638 42.6853 53.8944 42.6853 54.2124 42.6853C54.0175 44.1828 53.7611 45.629 53.5149 47.0855C53.1252 47.0855 52.7867 47.0855 52.3661 47.0855C52.6944 45.5982 53.0123 44.1417 53.3303 42.6853Z" fill="black"/>
<path d="M110.287 38.9928C110.707 38.9928 111.046 38.9928 111.456 38.9928C111.128 40.48 110.81 41.916 110.482 43.3827C110.184 43.3827 109.918 43.3827 109.589 43.3827C109.825 41.9057 110.051 40.4698 110.287 38.9928Z" fill="black"/>
<path d="M110.41 44.6751C110.41 45.0648 110.072 45.4341 109.713 45.4238C109.405 45.4136 109.159 45.1469 109.138 44.8084C109.128 44.4186 109.446 44.0391 109.805 44.0289C110.133 44.0289 110.4 44.3161 110.41 44.6751Z" fill="black"/>
<path d="M54.0073 41.998C53.6483 41.998 53.4226 41.7621 53.4226 41.3826C53.4226 40.9723 53.7406 40.6338 54.1098 40.6441C54.4175 40.6543 54.6739 40.921 54.6842 41.2492C54.6945 41.6287 54.3662 41.9877 54.0073 41.998Z" fill="black"/>
<path d="M109.056 38.8901C109.364 38.8901 109.651 38.8901 110.031 38.8901C109.672 39.403 109.313 39.8132 108.933 40.203C108.718 40.203 108.513 40.203 108.246 40.203C108.472 39.6902 108.779 39.3004 109.056 38.8901Z" fill="black"/>
<path d="M93.4452 38.8901C93.7837 38.8901 94.0606 38.8901 94.4401 38.8901C94.2145 39.1671 94.0401 39.3927 93.8657 39.5978C93.6914 39.803 93.5067 40.0081 93.3426 40.203C93.117 40.203 92.9221 40.203 92.6349 40.203C92.8708 39.7004 93.1683 39.3004 93.4452 38.8901Z" fill="black"/>
<path d="M22.2828 36.5413C27.6472 38.4285 32.7449 37.9567 37.4835 34.7668C42.1812 31.5975 44.7249 27.1254 45.3198 21.4534C45.4018 21.5867 45.4942 21.7098 45.5557 21.8534C46.0685 23.0945 46.2839 24.3971 46.1506 25.7203C45.6788 30.3359 44.0685 34.5001 41.176 38.1516C38.4682 41.5671 35.0527 44.0288 30.9704 45.5263C28.0164 46.6135 24.9496 47.0546 21.811 46.8802C17.9237 46.6546 14.303 45.5263 10.9797 43.4749C7.28726 41.1774 4.47688 38.1003 2.4973 34.2642C1.43058 32.1821 0.7126 29.9871 0.322839 27.6793C-0.0566662 25.392 -0.0976937 23.0945 0.179242 20.7867C0.569004 17.484 1.64598 14.4069 3.38965 11.576C5.10255 8.78614 7.31803 6.46808 10.0156 4.61159C12.9901 2.56021 16.2826 1.28836 19.8622 0.806284C22.4162 0.45755 24.9701 0.447293 27.4933 1.10373C29.7704 1.68838 31.7705 2.78586 33.5654 4.28337C36.6835 6.87836 38.7144 10.1708 39.5657 14.1197C40.5709 18.7866 39.7606 23.1868 37.1758 27.2178C36.3348 28.5306 35.3604 29.7512 34.1295 30.7256C33.6782 31.0846 33.1346 31.3205 32.632 31.5975C32.5705 31.6385 32.4679 31.618 32.3448 31.6282C33.6782 26.6434 32.1602 22.8073 27.7805 19.9969C27.5241 21.2277 27.001 22.2329 26.0779 23.0535C26.3343 23.1868 26.5497 23.2894 26.7548 23.4022C28.4164 24.3356 29.3191 25.7818 29.5242 27.6486C29.7088 29.3717 29.5242 31.0641 28.7344 32.6437C28.0369 34.0488 26.8984 35.0027 25.483 35.6284C24.6214 36.0182 23.7188 36.2643 22.7854 36.4284C22.6316 36.4592 22.4572 36.5002 22.2828 36.5413ZM5.62565 15.3505C6.16926 15.3505 6.66159 15.3505 7.15392 15.3505C8.49758 15.3403 9.61558 16.3455 9.59506 17.8532C9.53352 22.1611 9.56429 26.469 9.55404 30.7769C9.55404 30.9615 9.54378 31.1564 9.51301 31.341C9.33864 32.3565 8.81554 32.8693 7.77959 32.9821C7.35906 33.0232 6.92827 33.0129 6.49748 33.0232C6.33337 33.0334 6.16926 33.0437 5.97438 33.0539C5.8513 33.8027 5.72822 34.5001 5.59488 35.2797C6.63082 35.2797 7.61548 35.2797 8.6104 35.2797C9.61558 35.2899 10.6105 35.2694 11.6362 35.3207C11.6772 37.0541 11.5952 38.726 11.6567 40.3979C12.2311 40.3979 12.7337 40.3979 13.3081 40.3979C13.3183 38.726 13.3183 37.0746 13.3286 35.4335C14.6517 35.4335 15.8825 35.4335 17.1749 35.4335C17.1749 37.1259 17.1749 38.7568 17.1749 40.4081C17.739 40.4081 18.2314 40.4081 18.8057 40.4081C18.8365 38.726 18.857 37.0849 18.8878 35.4233C19.4519 35.3822 19.9443 35.331 20.4366 35.3002C21.77 35.2079 23.0829 35.013 24.3547 34.5719C25.924 34.0181 27.1549 33.0847 27.7395 31.4641C28.1395 30.3564 28.2523 29.2076 28.16 28.0383C27.9959 25.9459 26.7856 24.7356 24.8471 24.151C24.2111 23.9561 23.5547 23.8125 22.9188 23.6381C22.8162 23.6073 22.7341 23.5458 22.57 23.4637C23.1752 23.156 23.7085 22.8894 24.2419 22.6124C24.9804 22.2227 25.6061 21.6996 25.9958 20.9405C26.5805 19.802 26.5805 18.602 26.3035 17.3917C25.9753 15.9865 25.0317 15.0941 23.7496 14.5095C22.7136 14.0377 21.6059 13.8223 20.4879 13.6684C20.0058 13.6069 19.5237 13.5453 18.9904 13.4838C18.9904 11.8119 18.9904 10.1913 18.9904 8.51946C18.6827 8.51946 18.4365 8.51946 18.1801 8.51946C17.9339 8.51946 17.6775 8.51946 17.3698 8.51946C17.3698 9.3913 17.3698 10.1913 17.3698 10.9914C17.3698 11.7914 17.38 12.5812 17.339 13.3607C16.7339 13.4838 13.8414 13.4735 13.4619 13.3505C13.4619 11.7504 13.4619 10.14 13.4619 8.48869C12.908 8.48869 12.4054 8.48869 11.8208 8.48869C11.8208 10.1503 11.8208 11.8017 11.8208 13.494C9.71815 13.6171 7.68728 13.5043 5.63591 13.5761C5.62565 14.1505 5.62565 14.7146 5.62565 15.3505ZM35.1245 27.546C35.2168 27.4844 35.2475 27.4742 35.268 27.4434C35.3091 27.3921 35.3604 27.3408 35.4014 27.2896C38.2938 23.2791 39.2477 18.8584 38.0989 14.0377C37.1861 10.2324 35.0629 7.19632 31.8935 4.92955C29.4626 3.18588 26.7343 2.21148 23.7393 2.06788C21.5956 1.96531 19.4724 2.19096 17.4006 2.76535C12.149 4.22183 8.02576 7.25786 4.98972 11.7606C4.92818 11.8427 4.89741 11.9555 4.86664 12.0376C6.72314 12.0376 8.5386 12.0376 10.4361 12.0376C10.4361 10.3657 10.4361 8.73486 10.4361 7.11427C11.0721 7.00144 14.5184 7.04247 14.9286 7.16555C14.9286 8.74511 14.9286 10.3452 14.9286 11.9658C15.2774 11.9658 15.5748 11.9658 15.9338 11.9658C15.9338 11.3914 15.9338 10.8478 15.9338 10.3042C15.9338 9.7708 15.9338 9.2477 15.9441 8.71434C15.9543 8.18098 15.903 7.63737 15.9954 7.11427C16.8877 7.00144 20.0879 7.05273 20.4776 7.20658C20.4776 8.80665 20.4776 10.417 20.4776 12.0478C25.0727 11.1247 29.0729 12.2017 32.273 15.5865C35.4629 18.961 36.2937 23.0124 35.1245 27.546ZM15.7595 41.8338C15.7595 40.1517 15.7595 38.5106 15.7595 36.8592C15.3902 36.8592 15.0825 36.8592 14.703 36.8592C14.703 38.5311 14.703 40.1619 14.703 41.8338C13.6363 41.8338 12.6414 41.8338 11.5746 41.8338C15.7492 44.6442 23.0418 46.5725 30.2935 43.9673C37.4117 41.4133 42.0684 35.4951 43.6172 30.0487C41.1452 34.1001 37.7912 36.89 33.3398 38.2439C28.8883 39.5978 24.5393 39.1978 20.2622 37.2285C20.2622 37.8234 20.2622 38.3362 20.2622 38.8491C20.2622 39.3414 20.2622 39.844 20.252 40.3363C20.252 40.8389 20.2417 41.3415 20.2315 41.8338C18.7032 41.8338 17.257 41.8338 15.7595 41.8338ZM4.17943 13.1556C0.343352 19.6687 0.68183 28.4588 4.31277 34.2745C4.47688 33.3616 4.63073 32.4795 4.79484 31.5872C5.88207 31.5257 6.91802 31.6282 7.99499 31.5462C8.03602 31.2692 8.07704 31.0538 8.0873 30.8384C8.09756 30.0692 8.09756 29.2999 8.09756 28.5306C8.10781 25.0638 8.12833 21.597 8.13859 18.1199C8.13859 16.9711 7.9437 16.7865 6.79493 16.7763C6.07695 16.766 5.35897 16.7763 4.64099 16.766C4.49739 16.766 4.3538 16.7352 4.17943 16.725C4.17943 15.5352 4.17943 14.3967 4.17943 13.1556ZM24.5599 13.2684C26.6625 14.3454 27.76 16.0583 27.8728 18.4071C31.1858 20.2021 33.2064 22.9304 33.8731 26.7254C33.9141 26.5921 33.9347 26.5306 33.9449 26.469C34.109 24.8792 34.0783 23.2894 33.8218 21.7201C33.6782 20.8687 33.4628 19.9969 33.0936 19.2276C31.9038 16.7352 29.9858 14.9813 27.4318 13.9248C26.5087 13.5453 25.565 13.2889 24.5599 13.2684ZM5.88207 36.7259C7.12315 38.3465 8.52835 39.7312 10.2105 40.9825C10.2105 39.5158 10.2105 38.1516 10.2105 36.7259C8.77451 36.7259 7.36932 36.7259 5.88207 36.7259Z" fill="#D37923"/>
<path d="M13.4723 24.91C14.0467 24.8895 14.5493 24.8587 15.0621 24.8484C16.5186 24.8177 17.9648 24.8587 19.4008 25.1151C20.2316 25.2587 21.0214 25.5151 21.7496 25.9562C22.9292 26.6742 23.5241 27.7306 23.483 29.1153C23.442 30.6128 22.6215 31.5872 21.3188 32.2129C20.4983 32.6129 19.6162 32.8078 18.7136 32.9309C17.052 33.1565 15.3698 33.1257 13.698 33.0642C13.6364 33.0642 13.5646 33.0437 13.4723 33.0232C13.4723 30.3256 13.4723 27.6588 13.4723 24.91ZM14.8775 31.618C14.9596 31.6385 15.0314 31.659 15.0929 31.659C16.3955 31.7 17.6879 31.6487 18.97 31.4436C19.7906 31.3103 20.6111 31.0949 21.2881 30.5615C22.324 29.741 22.324 28.1922 21.2983 27.3716C20.765 26.9408 20.1393 26.7254 19.4829 26.5818C18.0571 26.2639 16.6109 26.2536 15.1544 26.2844C15.0724 26.2844 15.0006 26.3254 14.8775 26.3459C14.8775 28.0999 14.8775 29.8333 14.8775 31.618Z" fill="#D37923"/>
<path d="M13.5749 15.6889C13.6364 15.6582 13.6672 15.6377 13.698 15.6377C15.4416 15.5864 17.1853 15.5146 18.8982 15.9043C19.5649 16.0582 20.2008 16.3146 20.765 16.7249C22.6317 18.0685 22.5702 20.8994 20.6521 22.1713C19.9136 22.6636 19.0726 22.879 18.211 23.0329C16.6725 23.3201 15.1134 23.1662 13.5851 23.197C13.4313 22.7765 13.4416 16.5813 13.5749 15.6889ZM14.9391 21.7713C15.1955 21.7713 15.4006 21.7815 15.5955 21.7713C16.293 21.7405 16.9904 21.72 17.6879 21.6584C18.3649 21.5969 19.0418 21.4533 19.647 21.1148C20.1598 20.8276 20.5393 20.4379 20.6316 19.8225C20.7957 18.7865 20.3957 18.0173 19.4316 17.5865C18.7546 17.2788 18.0366 17.1249 17.2981 17.0941C16.5186 17.0634 15.7391 17.0839 14.9288 17.0839C14.9391 18.6224 14.9391 20.1507 14.9391 21.7713Z" fill="#D37923"/>
</svg>
